<svg width="41" height="35" viewBox="0 0 41 35" fill="none" xmlns="http://www.w3.org/2000/svg">
<path d="M13.1672 16.1234C15.3339 17.9364 16.7762 19.2425 17.0784 20.7151C17.4005 13.1771 21.2662 9.50046 25.7433 7.79386C22.622 7.04795 20.2589 6.84404 18.6169 7.38866C18.4216 7.46552 18.2281 7.54321 18.0237 7.61471C17.3795 7.84034 16.7233 8.03476 16.0628 8.2091C15.5304 8.34962 14.9955 8.47914 14.4591 8.58433C12.3316 9.00177 10.2153 9.1317 8.18452 8.98265C7.69307 8.94663 7.208 8.89067 6.72778 8.82206C6.94731 9.26878 7.18971 9.69048 7.44375 10.0986C9.03312 12.6519 11.2238 14.4973 13.1672 16.1234Z" fill="url(#paint0_linear)"/>
<path d="M17.0836 20.7149C16.7814 19.2422 15.3392 17.9363 13.1724 16.1232C11.2291 14.4972 9.03853 12.6517 7.44888 10.0986C7.19485 9.69049 6.95245 9.26879 6.73292 8.82207C4.65599 8.52549 2.69048 7.92958 0.924129 7.03641L0 6.56934L0.0554369 7.59698C0.228954 10.8086 3.82776 16.6393 9.29395 18.8388C13.3406 20.1257 16.1028 21.1688 16.5689 22.1271C16.6394 22.2715 16.7579 22.5394 16.6187 22.9037C16.4397 23.3595 16.9123 22.6221 17.0562 21.9726C17.052 21.5391 17.066 21.1251 17.0836 20.7149Z" fill="url(#paint1_linear)"/>
<path d="M14.4642 8.58428C15.0006 8.4791 15.5355 8.34958 16.0679 8.20906C16.7284 8.03485 17.3846 7.84029 18.0288 7.61466C18.2332 7.54303 18.4268 7.46534 18.622 7.38862C14.9242 7.06165 10.7082 5.85843 6.27857 1.07426L5.28403 0L5.24065 1.45787C5.1514 4.43837 5.75414 6.8308 6.73273 8.82202C7.21309 8.89063 7.69816 8.94659 8.18947 8.98261C10.2204 9.13166 12.3367 9.00172 14.4642 8.58428Z" fill="url(#paint2_linear)"/>
<path d="M29.7715 15.546L29.8783 15.5482C30.5175 9.39482 26.7271 7.99869 25.7485 7.79382C21.2715 9.50042 17.4058 13.1771 17.0836 20.715C17.0373 22.8841 15.5575 26.6574 7.77881 35C9.17484 34.7161 9.66157 34.4561 9.66157 34.4561C15.1523 32.8702 27.2692 26.3459 29.6797 16.299C29.7418 16.0403 29.8138 15.803 29.8824 15.5584L29.8847 15.5512L29.7727 15.546H29.7715Z" fill="url(#paint3_linear)"/>
<path d="M39.5788 6.0901C39.4702 5.87313 36.8407 0.781243 31.2414 1.21339C30.8094 1.2468 30.3798 1.30483 29.965 1.38622C27.5115 1.8676 25.7138 3.11056 23.8116 4.42639C22.2802 5.48511 20.6955 6.57353 18.6221 7.38861C20.264 6.84399 22.6271 7.0479 25.7485 7.79381C32.2519 5.31476 40.0231 6.97585 40.0231 6.97585L39.5788 6.0901Z" fill="url(#paint4_linear)"/>
<path d="M29.7727 15.546L29.8782 15.5482L29.7715 15.546H29.7727Z" fill="#03C0FF"/>
<path d="M29.7727 15.546L29.8782 15.5482L29.7715 15.546H29.7727Z" fill="url(#paint5_linear)"/>
<path d="M25.7463 7.79264C25.7863 7.80102 25.8323 7.81216 25.8811 7.82467C25.9702 7.84722 26.0564 7.87279 26.1398 7.90153C27.4724 8.34358 30.4483 10.0386 29.8762 15.547L29.7706 15.5448L29.8187 15.547L29.8826 15.55C31.662 9.21764 35.5704 7.51723 37.8001 7.07972C38.5374 6.93507 39.0183 6.94676 39.0183 6.94676L40.0209 6.97481C40.021 6.97467 32.2498 5.31358 25.7463 7.79264Z" fill="#0199FF"/>
<defs>
<linearGradient id="paint0_linear" x1="8.10208" y1="13.8301" x2="23.9439" y2="13.931" gradientUnits="userSpaceOnUse">
<stop stop-color="#15C1FF"/>
<stop offset="1" stop-color="#0049E9"/>
</linearGradient>
<linearGradient id="paint1_linear" x1="-0.532375" y1="7.20434" x2="15.5483" y2="20.6751" gradientUnits="userSpaceOnUse">
<stop stop-color="#B3A9FF"/>
<stop offset="1" stop-color="#3300BF"/>
</linearGradient>
<linearGradient id="paint2_linear" x1="5.51195" y1="5.14818" x2="17.6911" y2="2.72048" gradientUnits="userSpaceOnUse">
<stop stop-color="#2BF497"/>
<stop offset="1" stop-color="#08B4E5"/>
</linearGradient>
<linearGradient id="paint3_linear" x1="10.9463" y1="30.6049" x2="31.2619" y2="8.58323" gradientUnits="userSpaceOnUse">
<stop stop-color="#FF55EC"/>
<stop offset="1" stop-color="#0049E9"/>
</linearGradient>
<linearGradient id="paint4_linear" x1="22.0168" y1="6.72757" x2="39.6135" y2="3.21995" gradientUnits="userSpaceOnUse">
<stop stop-color="#3FFFFC"/>
<stop offset="1" stop-color="#014FFF"/>
</linearGradient>
<linearGradient id="paint5_linear" x1="18.2743" y1="1.80782" x2="31.8826" y2="18.2673" gradientUnits="userSpaceOnUse">
<stop stop-color="#94FFF7"/>
<stop offset="0.6882" stop-color="#0085BF"/>
<stop offset="1" stop-color="#0056BF"/>
</linearGradient>
</defs>
</svg>